<svg xmlns="http://www.w3.org/2000/svg" xmlns:xlink="http://www.w3.org/1999/xlink" width="500" zoomAndPan="magnify" viewBox="0 0 375 374.999991" height="500" preserveAspectRatio="xMidYMid meet" version="1.0"><defs><clipPath id="448ff1f128"><path d="M 25.914062 36.773438 L 349.0625 36.773438 L 349.0625 338.257812 L 25.914062 338.257812 Z M 25.914062 36.773438 " clip-rule="nonzero"/></clipPath></defs><path fill="#86aadf" d="M 306.984375 246.488281 C 296.964844 252.5 285.742188 255.664062 274.191406 257.09375 C 270.523438 237.746094 262.808594 217.589844 256.308594 202.621094 C 261.3125 196.054688 266.125 189.339844 270.6875 182.453125 C 273.550781 178.132812 276.53125 173.558594 279.46875 168.785156 C 290.375 174.339844 300.570312 180.804688 309.6875 188.277344 C 332.246094 206.773438 333.558594 230.539062 306.984375 246.488281 Z M 258.914062 303.808594 C 238.742188 320.367188 206.558594 307.738281 188.21875 294.890625 C 184.855469 292.535156 181.644531 290.007812 178.542969 287.347656 C 187.503906 278.886719 195.847656 270.101562 203.347656 262.246094 C 221.023438 264.851562 238.242188 266.183594 254.054688 266.183594 C 259.078125 266.183594 264.339844 265.957031 269.675781 265.441406 C 271.890625 280.402344 270.0625 294.660156 258.914062 303.808594 Z M 94.992188 304.78125 C 86.699219 287.3125 95.84375 259.929688 107.460938 235.382812 C 115.964844 239.128906 124.828125 242.546875 133.910156 245.628906 C 142.789062 260.753906 153.089844 275.144531 164.964844 287.121094 C 135.519531 311.574219 105.796875 327.550781 94.992188 304.78125 Z M 76.101562 208.230469 C 57.179688 195.605469 37.90625 176.28125 62.636719 158.554688 C 71.117188 152.476562 81.191406 148.382812 91.875 145.636719 C 96.355469 160.648438 101.355469 173.875 104.359375 181.90625 C 107.304688 189.796875 110.644531 198.214844 114.402344 206.851562 C 112.445312 210.511719 110.554688 214.164062 108.722656 217.800781 C 107.804688 219.628906 106.640625 221.941406 105.328125 224.632812 C 95.121094 219.816406 85.320312 214.378906 76.101562 208.230469 Z M 109.3125 63.164062 C 140.4375 63.164062 167.226562 81.476562 189.507812 106.738281 C 180.597656 114.734375 172.179688 123.453125 164.253906 132.667969 C 153.605469 132.339844 143.035156 132.515625 132.660156 133.195312 C 122.253906 133.878906 110.472656 134.53125 98.753906 136.230469 C 89.449219 105.503906 81.316406 63.164062 109.3125 63.164062 Z M 251.976562 192.980469 C 245.335938 178.589844 238.222656 164.277344 230.175781 150.542969 C 243.683594 154.027344 256.910156 158.464844 269.386719 163.992188 C 263.632812 174.515625 257.511719 184.507812 251.976562 192.980469 Z M 194.941406 113.136719 C 201.328125 120.945312 207.316406 129.289062 212.898438 137.863281 C 200.429688 135.535156 187.816406 134 175.25 133.191406 C 175.542969 132.886719 175.832031 132.574219 176.128906 132.269531 C 181.894531 126.292969 188.1875 119.675781 194.941406 113.136719 Z M 120.316406 196.085938 C 115.996094 185.339844 112.058594 174.617188 108.3125 164.277344 C 106.863281 160.273438 104.058594 152.777344 101.074219 143.621094 C 116.433594 140.773438 132.476562 140.214844 146.542969 140.214844 C 150.238281 140.214844 153.996094 140.285156 157.796875 140.40625 C 143.617188 157.957031 131.128906 176.988281 120.316406 196.085938 Z M 127.355469 233.875 C 121.941406 231.867188 116.609375 229.707031 111.367188 227.390625 C 113.570312 223.027344 115.792969 218.808594 117.957031 214.8125 C 120.859375 221.140625 123.992188 227.535156 127.355469 233.875 Z M 140.050781 238.273438 C 133.953125 227.332031 128.582031 215.878906 123.71875 204.347656 C 126.039062 200.1875 128.152344 196.433594 129.902344 193.226562 C 140.308594 174.136719 153.460938 156.925781 168.054688 140.894531 C 184.734375 141.929688 202.097656 144.207031 219.222656 147.941406 C 230.121094 165.957031 239.289062 184.476562 246.683594 200.894531 C 241.5 208.457031 237.265625 214.0625 235.042969 216.621094 C 230.683594 221.632812 217.988281 236.222656 201.828125 252.722656 C 181.121094 249.453125 160.1875 244.792969 140.050781 238.273438 Z M 146.855469 249.757812 C 162.308594 254.371094 178.1875 258.042969 193.847656 260.730469 C 186.859375 267.625 179.425781 274.632812 171.871094 281.234375 C 162.359375 271.921875 154.117188 261.246094 146.855469 249.757812 Z M 253.503906 216.550781 C 257.96875 227.132812 264.703125 242.382812 268.207031 257.683594 C 257.890625 258.449219 247.429688 258 237.421875 257.097656 C 228.800781 256.320312 220.027344 255.335938 211.1875 254.109375 C 224.980469 239.996094 238.335938 225.339844 250.65625 209.878906 C 251.640625 212.160156 252.597656 214.390625 253.503906 216.550781 Z M 265.214844 75.28125 C 305.472656 75.28125 293.324219 117.742188 273.433594 156.371094 C 257.597656 149.335938 240.882812 143.953125 223.785156 140.101562 C 216.929688 129.371094 209.40625 119.09375 200.953125 109.542969 C 200.621094 109.167969 200.285156 108.789062 199.9375 108.402344 C 218.773438 90.957031 240.910156 75.28125 265.214844 75.28125 Z M 307.4375 175.089844 C 299.925781 170.019531 292.050781 165.445312 283.90625 161.332031 C 294.238281 143.328125 302.804688 123.101562 301.476562 103.351562 C 299.027344 67.039062 264.03125 61.160156 235.761719 74.984375 C 221.011719 82.199219 207.246094 91.554688 194.457031 102.425781 C 172.617188 79.214844 132.023438 42.960938 102.109375 54.074219 C 75.679688 63.894531 80.371094 103.738281 89.636719 137.785156 C 75.328125 140.636719 61.679688 145.496094 51.390625 154.386719 C 27.765625 174.804688 48.25 199.664062 68.011719 213.550781 C 78.054688 220.605469 89.363281 226.984375 101.503906 232.675781 C 86.621094 264.816406 63.753906 325.316406 107.992188 325.320312 C 130.382812 325.320312 152.324219 310.84375 171.773438 293.558594 C 189.363281 309.113281 210.144531 319.253906 234.566406 319.253906 C 271.933594 319.253906 279.25 293.902344 275.429688 264.765625 C 295.707031 261.984375 316.28125 254.601562 328.570312 238.53125 C 347.539062 213.738281 329.207031 189.785156 307.4375 175.089844 " fill-opacity="1" fill-rule="nonzero"/><path fill="#f46a61" d="M 217.898438 193.878906 C 216.261719 208.195312 203.511719 218.980469 189.996094 222.253906 C 175.035156 225.875 161.03125 214.164062 157.796875 199.925781 C 155.304688 188.953125 159.058594 178.238281 166.824219 170.925781 C 173.226562 159.691406 190.710938 158.019531 201.59375 163.058594 C 213.074219 168.375 219.304688 181.5625 217.898438 193.878906 " fill-opacity="1" fill-rule="nonzero"/><g clip-path="url(#448ff1f128)"><path fill="#2e2e30" d="M 307.609375 203.03125 C 302.699219 202.550781 298.808594 203.378906 294.25 200.679688 C 289.992188 198.15625 287.769531 194.4375 285.757812 190.066406 C 285.378906 189.234375 284.058594 189.667969 284.078125 190.523438 C 284.203125 195.96875 288.1875 200.667969 292.660156 203.394531 C 296.734375 205.882812 303.859375 208.035156 308.125 204.933594 C 308.964844 204.324219 308.648438 203.128906 307.609375 203.03125 Z M 215.890625 219.992188 C 209.789062 222.226562 204.554688 226.082031 198.175781 227.863281 C 191.40625 229.75 184.730469 229.703125 177.78125 229.703125 C 176.539062 229.703125 176.28125 231.535156 177.488281 231.867188 C 184.457031 233.785156 192.179688 233.019531 199.089844 231.183594 C 205.34375 229.519531 212.949219 226.710938 216.957031 221.378906 C 217.445312 220.726562 216.632812 219.71875 215.890625 219.992188 Z M 146.492188 37.945312 C 142.210938 36.367188 135.082031 35.875 131.84375 39.761719 C 131.46875 40.210938 131.679688 41.039062 132.359375 41.007812 C 134.648438 40.910156 136.796875 40.023438 139.109375 39.980469 C 141.9375 39.933594 144.847656 40.652344 147.324219 42.023438 C 151.304688 44.226562 152.957031 50.4375 157.460938 51.304688 C 158.34375 51.472656 158.890625 50.667969 158.554688 49.882812 C 156.382812 44.820312 151.707031 39.867188 146.492188 37.945312 Z M 109.304688 71.546875 C 102.488281 72.535156 97.792969 81.226562 96.25 87.21875 C 94.84375 92.664062 94.308594 103.269531 100.011719 106.589844 C 100.777344 107.035156 101.769531 106.46875 101.769531 105.582031 C 101.765625 102.960938 100.371094 100.558594 99.890625 97.988281 C 99.285156 94.785156 99.441406 91.46875 100.203125 88.308594 C 100.929688 85.296875 102.179688 82.425781 103.996094 79.910156 C 105.816406 77.382812 108.390625 75.664062 110.3125 73.277344 C 110.988281 72.441406 110.347656 71.394531 109.304688 71.546875 Z M 345.585938 206.671875 C 345.019531 205.535156 343.3125 206.34375 343.597656 207.507812 C 345.636719 215.84375 346.519531 223.992188 344.410156 232.425781 C 343.441406 236.3125 341.941406 240.03125 339.960938 243.511719 C 337.925781 247.09375 335.035156 250.085938 332.996094 253.636719 C 332.496094 254.503906 333.476562 255.402344 334.320312 254.960938 C 341.855469 251.03125 346.113281 240.574219 347.882812 232.742188 C 349.816406 224.191406 349.582031 214.613281 345.585938 206.671875 Z M 308.414062 73.925781 C 301.585938 64.691406 290.800781 58.640625 279.371094 57.695312 C 278.394531 57.613281 278.207031 59.160156 279.140625 59.390625 C 289.988281 62.058594 300.613281 67.335938 306.886719 76.945312 C 310.359375 82.269531 311.992188 88.382812 312.574219 94.671875 C 313.125 100.6875 311.675781 107.253906 312.925781 113.101562 C 313.144531 114.121094 314.523438 113.949219 314.820312 113.101562 C 317.027344 106.886719 316.25 98.140625 315.359375 91.695312 C 314.472656 85.277344 312.28125 79.152344 308.414062 73.925781 Z M 264.617188 320.117188 C 257.753906 323.429688 251.316406 327.039062 243.738281 328.527344 C 236.039062 330.039062 227.972656 329.785156 220.335938 328.042969 C 218.945312 327.722656 218.402344 329.71875 219.75 330.167969 C 234.253906 335.003906 254.707031 333.324219 265.757812 321.601562 C 266.515625 320.796875 265.566406 319.660156 264.617188 320.117188 Z M 200.589844 326.898438 C 196.074219 324.160156 191.085938 322.417969 186.683594 319.441406 C 181.953125 316.246094 178.308594 312.117188 173.980469 308.488281 C 173.34375 307.953125 172.457031 308.609375 172.835938 309.375 C 177.277344 318.425781 190.015625 327.699219 200.132812 328.582031 C 201.066406 328.660156 201.308594 327.332031 200.589844 326.898438 Z M 98.941406 334.617188 C 86.402344 335.128906 77.265625 328.453125 73.738281 316.289062 C 70.042969 303.527344 73.476562 290.449219 72.433594 277.5 C 72.34375 276.40625 70.660156 276.003906 70.398438 277.222656 C 68.683594 285.179688 68.226562 293.832031 68.144531 301.953125 C 68.078125 308.875 68.835938 315.804688 71.609375 322.203125 C 75.863281 332.019531 88.234375 342.753906 99.398438 336.300781 C 100.15625 335.863281 99.851562 334.578125 98.941406 334.617188 Z M 44.597656 207.402344 C 45.25 207.984375 44.71875 209.078125 43.902344 209.082031 C 36.054688 209.097656 30.417969 200.242188 28.050781 193.726562 C 24.320312 183.429688 26.183594 172.460938 28.296875 162.046875 C 28.566406 160.714844 30.804688 161.019531 30.671875 162.367188 C 29.765625 171.476562 28.429688 181.351562 31.03125 190.292969 C 32.15625 194.160156 34.082031 197.878906 36.757812 200.90625 C 39.042969 203.492188 42.042969 205.136719 44.597656 207.402344 " fill-opacity="1" fill-rule="nonzero"/></g><path fill="#f6b737" d="M 141.128906 167.695312 C 137.453125 165.609375 133.175781 164.113281 128.996094 165.515625 C 127.253906 166.097656 125.234375 167.390625 124.164062 169.0625 C 121.269531 172.816406 120.945312 178.851562 122.789062 183.574219 C 126.316406 192.605469 134.613281 193.292969 141.835938 187.859375 C 145.339844 185.222656 148.261719 181.492188 148.132812 176.894531 C 148.007812 172.457031 144.703125 169.726562 141.128906 167.695312 Z M 318.359375 174.765625 C 306.023438 158.589844 282.285156 177.585938 292.800781 191.488281 C 302.511719 204.332031 329.777344 189.730469 318.359375 174.765625 Z M 148.550781 73.585938 C 141.289062 79.492188 129.371094 81.273438 124.890625 71.015625 C 122.523438 65.589844 123.964844 60.207031 127.40625 56.347656 C 131.464844 48.003906 140.636719 44.082031 149.183594 50.480469 C 157.425781 56.652344 156.140625 67.414062 148.550781 73.585938 " fill-opacity="1" fill-rule="nonzero"/><path fill="#ffffff" d="M 137.414062 169.125 C 136.554688 169.085938 135.957031 170.339844 136.671875 170.917969 C 138.320312 172.257812 140.015625 173.125 141.023438 175.125 C 141.898438 176.871094 141.691406 178.902344 142.492188 180.609375 C 142.683594 181.015625 143.265625 181.023438 143.554688 180.746094 C 145.390625 178.988281 144.453125 175.664062 143.414062 173.726562 C 142.246094 171.546875 140.019531 169.246094 137.414062 169.125 Z M 304.792969 174.585938 C 305.25 174.203125 305.007812 173.347656 304.4375 173.234375 C 294.824219 171.304688 289.382812 190.804688 301.488281 190.824219 C 302.210938 190.824219 302.46875 189.988281 302.042969 189.488281 C 301.203125 188.496094 300.144531 187.855469 299.242188 186.945312 C 297.492188 185.179688 297.652344 182.617188 298.714844 180.503906 C 300.128906 177.683594 302.503906 176.503906 304.792969 174.585938 Z M 135.03125 52.796875 C 131.132812 55.371094 127.691406 58.628906 127.878906 63.695312 C 127.992188 66.738281 130.039062 71.730469 133.816406 70.921875 C 134.398438 70.796875 134.558594 70.121094 134.332031 69.652344 C 133.121094 67.15625 130.90625 66.027344 131.015625 62.835938 C 131.132812 59.5 133.550781 56.117188 135.898438 53.921875 C 136.488281 53.375 135.714844 52.34375 135.03125 52.796875 Z M 200.84375 209.949219 C 197.882812 210.273438 195.148438 211.671875 192.214844 212.269531 C 188.613281 213.007812 184.953125 213.203125 181.292969 212.953125 C 180.222656 212.882812 179.984375 214.605469 181.035156 214.832031 C 187.222656 216.152344 196.644531 216.4375 201.558594 211.671875 C 202.136719 211.105469 201.738281 209.851562 200.84375 209.949219 Z M 175.890625 170.328125 C 171.496094 175.90625 168.824219 182.617188 167.8125 189.621094 C 167.285156 193.28125 166.859375 197.300781 167.996094 200.886719 C 169.09375 204.367188 171.835938 206.828125 173.769531 209.824219 C 174.21875 210.523438 173.476562 211.234375 172.777344 211.113281 C 164.011719 209.597656 162.734375 198.226562 163.664062 191.152344 C 164.792969 182.605469 167.671875 174.21875 174.828125 168.953125 C 175.703125 168.304688 176.441406 169.625 175.890625 170.328125 " fill-opacity="1" fill-rule="nonzero"/></svg>